<?xml version="1.0" encoding="UTF-8" standalone="no"?>
<!-- Created with Inkscape (http://www.inkscape.org/) -->

<svg
   width="76.727325"
   height="78.264893"
   viewBox="0 0 76.727325 78.264893"
   version="1.1"
   id="svg1"
   xml:space="preserve"
   inkscape:version="1.4.3 (0d15f75, 2025-12-25)"
   sodipodi:docname="cap.svg"
   xmlns:inkscape="http://www.inkscape.org/namespaces/inkscape"
   xmlns:sodipodi="http://sodipodi.sourceforge.net/DTD/sodipodi-0.dtd"
   xmlns="http://www.w3.org/2000/svg"
   xmlns:svg="http://www.w3.org/2000/svg"><sodipodi:namedview
     id="namedview1"
     pagecolor="#ffffff"
     bordercolor="#000000"
     borderopacity="0.25"
     inkscape:showpageshadow="2"
     inkscape:pageopacity="0.0"
     inkscape:pagecheckerboard="0"
     inkscape:deskcolor="#d1d1d1"
     inkscape:document-units="px"
     inkscape:zoom="8.3945652"
     inkscape:cx="38.358151"
     inkscape:cy="39.132462"
     inkscape:window-width="1600"
     inkscape:window-height="837"
     inkscape:window-x="-8"
     inkscape:window-y="-8"
     inkscape:window-maximized="1"
     inkscape:current-layer="g26"><inkscape:page
       x="0"
       y="0"
       width="76.727325"
       height="78.264893"
       id="page2"
       margin="0"
       bleed="0" /></sodipodi:namedview><defs
     id="defs1" /><g
     inkscape:label="Layer 1"
     inkscape:groupmode="layer"
     id="layer1"
     transform="translate(-498.17557,-962.8435)"><g
       id="g26"><rect
         style="fill:#551ed5;fill-opacity:0.28;stroke:none;stroke-width:1.42396;stroke-opacity:1"
         id="rect8-7-8"
         width="75.580406"
         height="78.264923"
         x="499.32248"
         y="962.84351"
         ry="26.042547" /><g
         id="g21"
         transform="matrix(0.85988546,0,0,0.85988546,643.69102,-10.071219)"><rect
           style="fill:#fdfdfd;fill-opacity:1;stroke:none;stroke-width:10.8041;stroke-opacity:1"
           id="rect18"
           width="48.137867"
           height="10.859007"
           x="-148.7796"
           y="1177.4746"
           ry="0" /><rect
           style="fill:#fdfdfd;fill-opacity:1;stroke:none;stroke-width:2.986;stroke-opacity:1"
           id="rect19"
           width="18.24761"
           height="4.813787"
           x="-133.7785"
           y="1188.2217" /><rect
           style="fill:#fdfdfd;fill-opacity:1;stroke:none;stroke-width:2.986;stroke-opacity:1"
           id="rect20"
           width="17.128124"
           height="9.515625"
           x="-140.60736"
           y="1168.9666" /><rect
           style="fill:#fdfdfd;fill-opacity:1;stroke:none;stroke-width:3.40646;stroke-opacity:1"
           id="rect21"
           width="7.2486677"
           height="22.613604"
           x="-147.52019"
           y="1184.6393"
           ry="5.0503712" /><path
           d="m -141.96285,1183.8958 v -2.0366 l 0.61083,-0.2806 16.61836,7.6135 38.258779,-17.5263 -38.258779,-17.5264 -38.25878,17.5264 17.38222,7.9616 a 2.3427144,2.3427144 0 0 0 -0.15559,0.8022 v 1.7241 l -3.0352,-1.39 v 5.8918 c 0,1.7446 0.46805,3.3107 1.27147,4.7186 v 13.0986 c 0,4.3041 7.33297,4.3041 7.33297,0 v -7.0856 c 13.83947,6.1482 39.52898,2.5812 39.52898,-10.7328 v -5.8919 l -24.06607,11.0249 -17.22919,-7.8915 m 0.49097,20.5781 c 0,0.4553 -0.29588,0.8647 -0.76264,1.1529 v -16.1669 l -0.25125,0.1709 v 16.135 l -0.7524,0.2308 v -16.0712 l -0.24868,0.045 v 16.0636 h -0.7524 v -16.0636 l -0.25125,-0.045 v 16.0725 l -0.7499,-0.2308 v -16.1363 l -0.25124,-0.1709 v 16.1669 c -0.46543,-0.2895 -0.76258,-0.6976 -0.76258,-1.1528 v -15.2819 c 0,-1.4615 0.74983,-2.6807 1.76372,-3.0492 v -5.7133 c 0,-0.389 0.19382,-0.6798 0.46037,-0.8009 l 19.12942,-8.7651 a 0.51904451,0.51904451 0 0 1 0.20912,-0.05 c 0.60961,0 0.80855,1.3391 0.12498,1.6528 l -18.67156,8.5521 v 5.1241 c 1.01511,0.366 1.76629,1.5852 1.76629,3.0493 v 15.2818"
           fill="#000000"
           id="path1-4"
           style="fill:#551ed5;fill-opacity:1;stroke-width:1.27529" /></g></g></g></svg>
