<?xml version="1.0" encoding="UTF-8" standalone="no"?>
<!-- Created with Inkscape (http://www.inkscape.org/) -->

<svg
   width="75.580414"
   height="78.264893"
   viewBox="0 0 75.580414 78.264893"
   version="1.1"
   id="svg1"
   xml:space="preserve"
   inkscape:version="1.4.3 (0d15f75, 2025-12-25)"
   sodipodi:docname="empty.svg"
   inkscape:export-filename="C:\Users\User\Documents\HTML\Logos\empty.svg"
   inkscape:export-xdpi="96"
   inkscape:export-ydpi="96"
   xmlns:inkscape="http://www.inkscape.org/namespaces/inkscape"
   xmlns:sodipodi="http://sodipodi.sourceforge.net/DTD/sodipodi-0.dtd"
   xmlns="http://www.w3.org/2000/svg"
   xmlns:svg="http://www.w3.org/2000/svg"><sodipodi:namedview
     id="namedview1"
     pagecolor="#ffffff"
     bordercolor="#000000"
     borderopacity="0.25"
     inkscape:showpageshadow="2"
     inkscape:pageopacity="0.0"
     inkscape:pagecheckerboard="0"
     inkscape:deskcolor="#d1d1d1"
     inkscape:document-units="px"
     inkscape:zoom="8.3945652"
     inkscape:cx="37.762528"
     inkscape:cy="39.132462"
     inkscape:window-width="1600"
     inkscape:window-height="837"
     inkscape:window-x="-8"
     inkscape:window-y="-8"
     inkscape:window-maximized="1"
     inkscape:current-layer="g8"><inkscape:page
       x="0"
       y="0"
       width="75.580414"
       height="78.264893"
       id="page2"
       margin="0"
       bleed="0" /></sodipodi:namedview><defs
     id="defs1" /><g
     inkscape:label="Layer 1"
     inkscape:groupmode="layer"
     id="layer1"
     transform="translate(-254.12857,-1118.5867)"><g
       id="g8"><rect
         style="fill:#5e5c64;fill-opacity:0.28;stroke:none;stroke-width:1.42396;stroke-opacity:1"
         id="rect8-7-24"
         width="75.580406"
         height="78.264923"
         x="254.12857"
         y="1118.5867"
         ry="26.042547" /><g
         id="g1"
         transform="matrix(0.79935021,0,0,0.79935021,57.572756,232.93518)"><g
           id="g2"><ellipse
             style="fill:#fefefe;fill-opacity:0.996078;stroke-width:2.7018"
             id="path11"
             cx="291.69687"
             cy="1158.1654"
             rx="30.872114"
             ry="30.68648" /><path
             d="m 275.9037,1131.7983 39.07006,46.5251 c 6.03289,-5.7834 7.59506,-11.827 7.59523,-20.158 -3e-5,-16.9478 -13.82218,-30.6867 -30.87253,-30.6865 -6.66268,10e-5 -10.45618,0.3543 -15.79276,4.3194 z"
             style="fill:#3d3846;fill-opacity:0.996078;stroke-width:1.26204"
             id="path5"
             sodipodi:nodetypes="cccsc" /><path
             d="m 305.95011,1185.3856 -39.23169,-45.254 c -5.09197,5.6328 -5.89386,10.4611 -5.89366,18.0338 3e-5,16.9475 13.82168,30.6862 30.8717,30.6865 5.91059,0 9.279,-0.2936 14.25365,-3.4663 z"
             style="fill:#3d3846;fill-opacity:0.996078;stroke-width:1.26204"
             id="path8"
             sodipodi:nodetypes="ccccc" /></g><path
           d="m 273.21333,1133.5866 a 30.872163,30.68655 0 0 0 -4.48001,4.068 l 39.63473,46.3381 a 30.872163,30.68655 0 0 0 4.75992,-3.74 z"
           style="fill:#d2d2d2;fill-opacity:0.996078;stroke-width:1.06854"
           id="path9" /></g></g></g></svg>
