<?xml version="1.0" encoding="UTF-8" standalone="no"?>
<!-- Created with Inkscape (http://www.inkscape.org/) -->

<svg
   width="101.08047"
   height="154.30794"
   viewBox="0 0 101.08047 154.30794"
   version="1.1"
   id="svg1"
   xml:space="preserve"
   sodipodi:docname="Logo.svg"
   inkscape:version="1.4.3 (0d15f75, 2025-12-25)"
   xmlns:inkscape="http://www.inkscape.org/namespaces/inkscape"
   xmlns:sodipodi="http://sodipodi.sourceforge.net/DTD/sodipodi-0.dtd"
   xmlns:xlink="http://www.w3.org/1999/xlink"
   xmlns="http://www.w3.org/2000/svg"
   xmlns:svg="http://www.w3.org/2000/svg"><sodipodi:namedview
     id="namedview1"
     pagecolor="#ffffff"
     bordercolor="#000000"
     borderopacity="0.25"
     inkscape:showpageshadow="2"
     inkscape:pageopacity="0.0"
     inkscape:pagecheckerboard="0"
     inkscape:deskcolor="#d1d1d1"
     inkscape:document-units="px"
     inkscape:zoom="2.1288601"
     inkscape:cx="-196.34921"
     inkscape:cy="59.421473"
     inkscape:window-width="1600"
     inkscape:window-height="837"
     inkscape:window-x="-8"
     inkscape:window-y="-8"
     inkscape:window-maximized="1"
     inkscape:current-layer="layer1"><inkscape:page
       x="0"
       y="0"
       width="101.08047"
       height="154.30794"
       id="page2"
       margin="0"
       bleed="0" /></sodipodi:namedview><defs
     id="defs1"><linearGradient
       id="linearGradient21"
       inkscape:collect="always"><stop
         style="stop-color:#bbc1d1;stop-opacity:1;"
         offset="0.27953893"
         id="stop21" /><stop
         style="stop-color:#959697;stop-opacity:1;"
         offset="0.5129683"
         id="stop23" /><stop
         style="stop-color:#cbcbcb;stop-opacity:1;"
         offset="1"
         id="stop22" /></linearGradient><linearGradient
       id="linearGradient19"
       inkscape:collect="always"><stop
         style="stop-color:#c61748;stop-opacity:1;"
         offset="0.50144094"
         id="stop19" /><stop
         style="stop-color:#b2b2b2;stop-opacity:1;"
         offset="0.87031698"
         id="stop20" /></linearGradient><inkscape:path-effect
       effect="bspline"
       id="path-effect15"
       is_visible="true"
       lpeversion="1.3"
       weight="33.333333"
       steps="2"
       helper_size="0"
       apply_no_weight="true"
       apply_with_weight="true"
       only_selected="false"
       uniform="false" /><inkscape:path-effect
       effect="bspline"
       id="path-effect13"
       is_visible="true"
       lpeversion="1.3"
       weight="33.333333"
       steps="2"
       helper_size="0"
       apply_no_weight="true"
       apply_with_weight="true"
       only_selected="false"
       uniform="false" /><linearGradient
       id="linearGradient9"
       inkscape:collect="always"><stop
         style="stop-color:#2d499d;stop-opacity:1;"
         offset="0"
         id="stop9" /><stop
         style="stop-color:#2d499d;stop-opacity:1;"
         offset="0.37192282"
         id="stop11" /><stop
         style="stop-color:#375ed3;stop-opacity:1;"
         offset="0.80403459"
         id="stop12" /><stop
         style="stop-color:#5076f1;stop-opacity:1;"
         offset="0.99711818"
         id="stop10" /></linearGradient><linearGradient
       inkscape:collect="always"
       xlink:href="#linearGradient9"
       id="linearGradient10"
       x1="332.34595"
       y1="128.92976"
       x2="480.07184"
       y2="88.175804"
       gradientUnits="userSpaceOnUse"
       gradientTransform="matrix(0.67183967,0,-1.42488e-8,1.24069,-112.42337,205.88432)" /><clipPath
       clipPathUnits="userSpaceOnUse"
       id="clipPath12"><rect
         style="opacity:1;fill:#073984;fill-opacity:1;stroke:none;stroke-width:14.1824;stroke-dasharray:7.09121, 7.09121;stroke-dashoffset:0;stroke-opacity:1"
         id="rect13"
         width="218.34961"
         height="125.89053"
         x="290.60919"
         y="42.674751"
         transform="matrix(0.71575195,0.6983546,-0.7023767,0.71180543,0,0)" /></clipPath><linearGradient
       inkscape:collect="always"
       xlink:href="#linearGradient19"
       id="linearGradient20"
       x1="447.69135"
       y1="93.250389"
       x2="495.54645"
       y2="93.250389"
       gradientUnits="userSpaceOnUse"
       gradientTransform="matrix(0.45781107,0,0,0.63633027,-80.365943,122.29542)" /><linearGradient
       inkscape:collect="always"
       xlink:href="#linearGradient21"
       id="linearGradient22"
       x1="448.84393"
       y1="293.51657"
       x2="496.83188"
       y2="293.51657"
       gradientUnits="userSpaceOnUse"
       gradientTransform="matrix(0.45781107,0,0,0.56542797,-80.365943,117.36525)" /></defs><g
     inkscape:label="Layer 1"
     inkscape:groupmode="layer"
     id="layer1"
     transform="translate(-86.695051,-153.38722)"><ellipse
       style="fill:none;fill-opacity:1;stroke:#0000f5;stroke-width:6.16529;stroke-dasharray:none;stroke-opacity:1"
       id="path8"
       cx="137.17641"
       cy="233.2077"
       rx="44.420975"
       ry="41.459576" /><path
       style="fill:url(#linearGradient20);fill-opacity:1;stroke:none;stroke-width:3.02254;stroke-dasharray:none;stroke-dashoffset:0;stroke-opacity:1"
       d="m 124.59211,209.38147 10.85193,-55.49601 11.05668,53.78845 v -0.56921"
       id="path16" /><path
       style="fill:url(#linearGradient22);fill-opacity:1;stroke:none;stroke-width:2.84918;stroke-dasharray:none;stroke-dashoffset:0;stroke-opacity:1"
       d="m 147.0892,259.61377 -14.01305,48.08138 -7.9236,-48.73485 -0.0328,0.50415"
       id="path16-1" /><rect
       style="fill:url(#linearGradient10);stroke:none;stroke-width:11.4123;stroke-dasharray:5.70618, 5.70618;stroke-dashoffset:0;stroke-opacity:1"
       id="rect9"
       width="131.00769"
       height="124.29565"
       x="124.35198"
       y="316.86261"
       transform="matrix(0.39849293,-0.15727636,0.3932144,0.16119441,-87.238168,192.57923)"
       clip-path="url(#clipPath12)" /><path
       style="fill:#0a1227;fill-opacity:1;stroke:none;stroke-width:12.5004;stroke-dasharray:6.25021, 6.25021;stroke-dashoffset:0;stroke-opacity:1"
       d="m -411.46457,227.2 c 1.19265,21.46772 2.38531,42.93543 16.06338,55.90555 13.67808,12.97013 33.92083,16.43053 65.65199,16.61334 31.73116,0.18282 51.53082,-3.04698 65.08357,-14.8244 13.55274,-11.77743 15.06859,-31.15801 15.72876,-42.04094 0.66016,-10.88294 0.46466,-13.26825 0.26915,-15.65355"
       id="path13"
       inkscape:path-effect="#path-effect13"
       inkscape:original-d="m -411.46457,227.2 c 1.19265,21.46772 2.38531,42.93543 3.57796,64.40315 26.1635,4.47253 46.40625,7.93293 78.48894,13.41732 31.37963,-5.11876 51.17929,-8.34856 76.76894,-12.52284 1.51584,-19.38057 3.03168,-38.76115 4.54753,-58.14172 -0.19551,-2.3853 -0.39102,-4.77061 -0.58652,-7.15591"
       transform="matrix(0.41637841,0,0,0.42589924,273.90506,133.7215)"
       sodipodi:nodetypes="cccccc" /><path
       style="fill:#b2323f;fill-opacity:1;stroke:#b2323f;stroke-width:4.59125;stroke-dasharray:none;stroke-dashoffset:0;stroke-opacity:1"
       d="m 466.62467,130.1853 c 3.57795,-0.18635 9.54121,0.11182 14.61002,0.85724 5.06881,0.74542 9.243,1.93804 12.22464,2.98162 2.98165,1.04357 4.77059,1.93804 8.79579,4.64095 4.0252,2.7029 10.28649,7.21414 14.9081,10.94125 4.62162,3.7271 7.60318,6.66979 10.28667,9.93018 2.68349,3.26038 5.06874,6.83826 6.41048,10.11808 1.34174,3.27982 1.6399,6.26139 1.49081,7.7522 -0.14909,1.49082 -0.74541,1.49082 -1.30447,1.04356 -0.55906,-0.44725 -1.08083,-1.34172 -1.56535,-2.49712 -0.48452,-1.15539 -0.93175,-2.57163 -1.78898,-4.47244 -0.85723,-1.90081 -2.1244,-4.28607 -3.20525,-6.11233 -1.08085,-1.82626 -1.97532,-3.09342 -3.31707,-4.69607 -1.34175,-1.60264 -3.13069,-3.54066 -4.80787,-5.29238 -1.67718,-1.75172 -3.24251,-3.31705 -4.72828,-4.85972 -1.48577,-1.54268 -2.89188,-3.06261 -4.6315,-4.47891 -1.73963,-1.41629 -3.81258,-2.72882 -6.0539,-4.09326 -2.24132,-1.36445 -4.6508,-2.7807 -6.89915,-3.93609 -2.24835,-1.15538 -4.33545,-2.04985 -6.90714,-2.758 -2.57168,-0.70814 -5.62778,-1.22991 -8.72125,-1.67716 -3.09347,-0.44725 -6.22412,-0.81995 -9.13123,-1.11811 -2.90712,-0.29816 -5.59053,-0.52178 -7.49132,-0.63359 -1.9008,-0.11181 -3.01889,-0.11181 -2.98161,-0.44725 0.0373,-0.33544 1.22991,-1.00629 4.80786,-1.19265 z"
       id="path15"
       transform="matrix(0.54440091,0,0,0.55166828,-113.68848,150.89586)"
       inkscape:original-d="m 464.23937,129.70079 c 5.96325,0.29816 11.92651,0.59632 17.88976,0.89449 4.17437,1.19267 8.34856,2.3853 12.52284,3.57795 1.78901,0.8945 3.57795,1.78897 5.36693,2.68346 6.26142,4.51132 12.52271,9.02256 18.78425,13.53397 2.98168,2.94281 5.96325,5.88549 8.94488,8.82824 2.38535,3.57802 4.77061,7.1559 7.15591,10.73386 0.29817,2.98168 0.59632,5.96325 0.89449,8.94488 -0.59634,0 -1.19266,0 -1.78898,0 -0.5218,-0.89451 -1.04357,-1.78898 -1.56535,-2.68347 -0.44726,-1.4163 -0.89449,-2.83254 -1.34174,-4.24882 -1.26721,-2.38534 -2.53438,-4.7706 -3.80157,-7.1559 -0.89451,-1.26722 -1.78898,-2.53438 -2.68347,-3.80158 -1.78901,-1.93809 -3.57795,-3.87611 -5.36693,-5.81417 -1.56538,-1.56538 -3.1307,-3.13071 -4.69606,-4.69606 -1.40619,-1.52 -2.8123,-3.03993 -4.21848,-4.55993 -2.07307,-1.31259 -4.14602,-2.62512 -6.21909,-3.93771 -2.40957,-1.4163 -4.81905,-2.83255 -7.22857,-4.24882 -2.08718,-0.8945 -4.17428,-1.78898 -6.26142,-2.68346 -3.05623,-0.5218 -6.11233,-1.04357 -9.1685,-1.56536 -3.13077,-0.37271 -6.26142,-0.7454 -9.39213,-1.11811 -2.68352,-0.22362 -5.36693,-0.44724 -8.05039,-0.67086 -1.11813,0 -2.23622,0 -3.35433,0 1.19267,-0.67088 2.3853,-1.34174 3.57795,-2.0126 z"
       inkscape:path-effect="#path-effect15"
       sodipodi:nodetypes="cccccccccccccccccccccccc" /><path
       style="fill:#b8bece;fill-opacity:1;stroke:none;stroke-width:6.01656;stroke-dasharray:3.00828, 3.00828;stroke-dashoffset:0;stroke-opacity:1"
       id="path14"
       sodipodi:type="arc"
       sodipodi:cx="135.44403"
       sodipodi:cy="222.49112"
       sodipodi:rx="3.8318119"
       sodipodi:ry="3.3526678"
       sodipodi:start="0"
       sodipodi:end="6.2808328"
       sodipodi:arc-type="slice"
       d="m 139.27584,222.49112 a 3.8318119,3.3526678 0 0 1 -3.82956,3.35267 3.8318119,3.3526678 0 0 1 -3.83406,-3.34873 3.8318119,3.3526678 0 0 1 3.82505,-3.3566 3.8318119,3.3526678 0 0 1 3.83856,3.34477 l -3.8318,0.008 z" /><path
       style="fill:#b2323f;fill-opacity:1;stroke:none;stroke-width:6.01656;stroke-dasharray:3.00828, 3.00828;stroke-dashoffset:0;stroke-opacity:1"
       id="path14-5"
       sodipodi:type="arc"
       sodipodi:cx="176.93152"
       sodipodi:cy="251.30267"
       sodipodi:rx="3.8318119"
       sodipodi:ry="3.3526678"
       sodipodi:start="0"
       sodipodi:end="6.2808328"
       sodipodi:arc-type="slice"
       d="m 180.76333,251.30267 a 3.8318119,3.3526678 0 0 1 -3.82956,3.35267 3.8318119,3.3526678 0 0 1 -3.83406,-3.34872 3.8318119,3.3526678 0 0 1 3.82505,-3.35661 3.8318119,3.3526678 0 0 1 3.83856,3.34478 l -3.8318,0.008 z" /></g></svg>
