<?xml version="1.0" encoding="UTF-8" standalone="no"?>
<!-- Created with Inkscape (http://www.inkscape.org/) -->

<svg
   width="75.580383"
   height="78.264893"
   viewBox="0 0 75.580383 78.264893"
   version="1.1"
   id="svg1"
   xml:space="preserve"
   inkscape:version="1.4.3 (0d15f75, 2025-12-25)"
   sodipodi:docname="Icon_latest.svg"
   inkscape:export-filename="C:\Users\User\Documents\HTML\Logos\empty.svg"
   inkscape:export-xdpi="96"
   inkscape:export-ydpi="96"
   xmlns:inkscape="http://www.inkscape.org/namespaces/inkscape"
   xmlns:sodipodi="http://sodipodi.sourceforge.net/DTD/sodipodi-0.dtd"
   xmlns="http://www.w3.org/2000/svg"
   xmlns:svg="http://www.w3.org/2000/svg"><sodipodi:namedview
     id="namedview1"
     pagecolor="#ffffff"
     bordercolor="#000000"
     borderopacity="0.25"
     inkscape:showpageshadow="2"
     inkscape:pageopacity="0.0"
     inkscape:pagecheckerboard="0"
     inkscape:deskcolor="#d1d1d1"
     inkscape:document-units="px"
     inkscape:zoom="0.39760138"
     inkscape:cx="-354.62654"
     inkscape:cy="926.80765"
     inkscape:window-width="1600"
     inkscape:window-height="837"
     inkscape:window-x="-8"
     inkscape:window-y="-8"
     inkscape:window-maximized="1"
     inkscape:current-layer="layer1"><inkscape:page
       x="0"
       y="0"
       width="75.580383"
       height="78.264893"
       id="page2"
       margin="0"
       bleed="0" /></sodipodi:namedview><defs
     id="defs1" /><g
     inkscape:label="Layer 1"
     inkscape:groupmode="layer"
     id="layer1"
     transform="translate(-374.2612,-1119.476)"><g
       id="g43"
       transform="translate(64.261187,-232.52403)"><rect
         style="fill:#581fe0;fill-opacity:0.38;stroke:none;stroke-width:1.42396;stroke-opacity:1"
         id="rect8-7-24-2"
         width="75.580406"
         height="78.264923"
         x="310"
         y="1352"
         ry="26.042547" /><g
         id="g42"
         transform="translate(-11.957768,5.5304681)"><ellipse
           style="opacity:1;fill:#ffffff;fill-opacity:1;stroke-width:3.26024"
           id="path42"
           ry="20.769341"
           rx="20.485218"
           cy="1386.4082"
           cx="358.03088" /><g
           id="g41"
           transform="matrix(0.67868806,0,0,0.67868806,226.37718,347.29595)"><path
             d="m 193.9827,1500.3785 a 30.183855,30.681421 0 0 0 -30.1836,30.6816 30.183855,30.681421 0 0 0 30.1836,30.6817 30.183855,30.681421 0 0 0 30.1835,-30.6817 30.183855,30.681421 0 0 0 -4.6894,-16.4238 l -6.8359,6.457 a 21.435854,22.802427 0 0 1 2.4882,10.6621 21.435854,22.802427 0 0 1 -21.4375,22.8008 21.435854,22.802427 0 0 1 -21.4355,-22.8008 21.435854,22.802427 0 0 1 21.4355,-22.8027 21.435854,22.802427 0 0 1 11.4746,3.541 l 5.1954,-7.2051 a 30.183855,30.681421 0 0 0 -16.3789,-4.9101 z"
             style="fill:#581fe0;fill-opacity:0.877755;stroke-width:2.95646"
             id="path38" /><path
             d="m 206.6311,1525.4351 -6.3008,5.416 a 5.5425186,5.59061 0 0 1 0.082,0.9629 5.5425186,5.59061 0 0 1 -5.5429,5.5918 5.5425186,5.59061 0 0 1 -5.541,-5.5918 5.5425186,5.59061 0 0 1 2.4121,-4.6113 l 7.6484,-8.0625 a 13.353738,13.469605 0 0 0 -4.5195,-0.7949 13.353738,13.469605 0 0 0 -13.3535,13.4687 13.353738,13.469605 0 0 0 13.3535,13.4707 13.353738,13.469605 0 0 0 13.3535,-13.4707 13.353738,13.469605 0 0 0 -1.5918,-6.3789 z"
             style="fill:#581fe0;fill-opacity:0.873747;stroke-width:3.8886"
             id="path41" /><path
             style="fill:#581fe0;fill-opacity:0.879759;stroke-width:2.986"
             d="m 214.6477,1500.63 11.1988,-11.236 1.3064,11.1236 10.0828,0.011 -11.2968,11.7117 -6.8714,-0.4362 -22.5554,20.4259 -4.1602,-3.8496 22.4106,-21.7375 z"
             id="path39" /></g></g></g></g></svg>
